<?xml version="1.0" encoding="UTF-8"?>
<svg xmlns="http://www.w3.org/2000/svg" viewBox="0 0 500 500">
  <defs>
    <style>
      .cls-1 {
        font-family: AdobeMyungjoStd-Medium-KSCpc-EUC-H, 'Adobe Myungjo Std';
        font-size: 62px;
        font-weight: 500;
        letter-spacing: .4em;
      }

      .cls-1, .cls-2 {
        fill: #2f3842;
      }

      .cls-3 {
        fill: #97bf0f;
      }
    </style>
  </defs>
  <g id="OBJECTS">
    <path class="cls-3" d="M180.87,137.03c5.23-.4,9.18-.61,11.76-.61,1.03,0,1.85,.03,2.51,.1,4.11,.4,9.43,3.44,13.88,6.53-.13-1.64,0-2.3,.18-2.83,1.05-3.15,5.08-4.56,13.92-4.88,.68-.02,1.35-.04,2.02-.04,5.15,0,13.67,.86,16.05,3.24,2.17,2.17,1.42,6.39,.95,8.24,1.49-.08,3.15-.14,4.98-.17v-.02h5.75v.02c1.83,.03,3.49,.08,4.98,.17-.47-1.85-1.21-6.08,.95-8.24,2.37-2.38,10.9-3.24,16.05-3.24,.66,0,1.34,.01,2.02,.04,8.83,.31,12.87,1.72,13.91,4.86,.18,.54,.32,1.2,.19,2.85,4.46-3.09,9.77-6.13,13.89-6.53,.65-.06,1.47-.1,2.5-.1,2.58,0,6.53,.2,11.76,.61,1.65-2.19,2.74-2.83,3.46-3.05,.01-.04,.02-.09,.04-.13-20.46-14.77-45.58-23.47-72.74-23.47s-52.12,8.65-72.54,23.33c.03,.09,.05,.18,.08,.28,.72,.22,1.8,.86,3.45,3.05Zm169.44,24.32c-2.54,3.29-5.17,3.61-6.05,3.61-.15,0-.3,0-.44-.02-1.51-.14-14.81-1.47-17.2-4.1-.8-.88-1.28-2.11-1.49-3.87-2.33-.31-5.51-.9-6.73-1.85-.59-.46-1.04-1.03-1.38-1.57-4.32-.32-7.56-.48-9.66-.48-.92,0-1.44,.03-1.72,.06-3.18,.31-9.61,4.49-14.98,8.78l.13,3.6c.05,1.22-.46,2.39-1.4,3.19-.09,.08-.25,.21-.48,.36,8.5,7.59,9.71,14.67,9.8,17.64,2.92,3.79,5.41,9.06,7.42,15.72,2.69-1.54,5.49-1.72,6.6-1.72,.44,0,.75,.02,.91,.04,.56,.05,1.24,.11,9.37,3.98l.1,.05c.43,.18,.86,.38,1.27,.6l1.06,.5-.04,.1c4.37,2.82,7.16,7.86,7.16,13.32,0,8.64-6.75,15.66-15.05,15.66-.88,0-1.75-.08-2.61-.24l-.17,.53-3.08-1.54c-.12-.05-.45-.22-.45-.22-.62-.29-1.21-.59-1.79-.91-.62,4.99-1.84,9.84-3.65,14.47,1.73,1.08,3.33,2.9,4.27,5.68,.12,.35,.27,.93,.56,2.49,5.21,.43,9.54,3.39,11.23,7.78,1.39,3.61,3.11,16.28,3.94,22.85,8.65,.12,14.67,.22,17.49,.3,4.19,.12,11.56,.35,19.72,.62,7.28-15.81,11.34-33.41,11.34-51.95,0-27.48-8.91-52.87-24-73.46Zm-172.13,101.65c1.69-4.4,6.02-7.36,11.23-7.78,.29-1.56,.44-2.14,.56-2.49,.95-2.78,2.55-4.6,4.27-5.68-1.81-4.63-3.04-9.48-3.65-14.47-.58,.32-1.19,.63-1.82,.93,0,0-.3,.15-.42,.2l-3.04,1.52-.18-.53c-.87,.16-1.76,.24-2.65,.24-8.3,0-15.05-7.03-15.05-15.66,0-5.46,2.79-10.51,7.17-13.32l-.03-.09,.92-.44c.45-.25,.92-.47,1.4-.67l.09-.05c8.13-3.87,8.81-3.93,9.37-3.98,.16-.01,.47-.04,.91-.04,1.11,0,3.9,.17,6.6,1.72,2.01-6.66,4.5-11.93,7.42-15.72,.09-2.97,1.3-10.05,9.8-17.64-.23-.15-.38-.28-.47-.36-.94-.8-1.45-1.97-1.4-3.19l.13-3.6c-5.37-4.29-11.8-8.47-14.98-8.78-.27-.03-.8-.06-1.72-.06-2.1,0-5.34,.16-9.66,.48-.34,.55-.79,1.11-1.38,1.57-1.21,.95-4.4,1.54-6.73,1.85-.21,1.75-.69,2.99-1.49,3.86-2.4,2.63-15.69,3.96-17.2,4.1-.15,.01-.3,.02-.45,.02-.89,0-3.6-.32-6.18-3.77-15.16,20.62-24.12,46.07-24.12,73.62,0,18.16,3.89,35.4,10.88,50.95,11.85-.11,25.12-.24,37.97-.35,.89-7.04,2.54-18.91,3.88-22.41Zm82.35-102.03l-.48-5.18c-3-.28-7.49-.44-9.4-.49h-1.31c-1.84,.04-6.35,.21-9.37,.49l-.48,5.18c2.78-.48,5.75-.75,7.64-.89h5.75c1.9,.14,4.86,.41,7.64,.89Z"/>
    <g>
      <path class="cls-2" d="M96.97,289.14s116.52-1.16,134.32-1.16c15.89,0,98.32,.77,111.87,1.16,13.55,.39,59.61,1.94,59.61,1.94,0,0-54.97,1.94-60.77,1.94s-119.23-1.16-128.52-.77c-9.29,.39-83.61-1.16-92.13-.77-8.52,.39-24.39-2.32-24.39-2.32Z"/>
      <path class="cls-2" d="M141.27,105.23c.7-.4,.61-2.14,2.26-3.97s7.99-5.09,7.99-5.09c0,0-12.98,3.87-19.12,7.25-6.14,3.38-7.6,5.53-7.6,5.53,0,0,5.58-2.28,9.17-3.68,2.7-1.06,6.59,.36,7.29-.04Zm250.82,42.1l-40.15-4.81c-.19-1.76-.54-3.19-.87-4.22,1.76,.51,5.06,1.34,10.22,2.14,7.24,1.12,14.32,1.07,16.05,1.04,.44,.51,1.1,.85,1.84,.85,1.34,0,2.42-1.06,2.42-2.37s-1.08-2.37-2.42-2.37c-1.01,0-1.88,.61-2.24,1.48-1.76-.09-8.19-.48-13.97-1.91-5.78-1.43-11.6-4.17-13.18-4.95-.16-.95-.38-1.58-.65-1.88-.94-1.02-6.6-2.79-8.32-2.88-1.82-.1-3.64,.01-4.69,1.48-.7,.98-1.14,3.3-1.32,4.35-.92,.39-1.8,1.14-2.51,2.13,1.79-6.06,3.65-11.93,4.18-12.88,.25-.2,.9-.51,1.8-.88,.33,.19,.67,.36,1.03,.53,7.2,3.4,14.22,5.12,22.07,5.42,1.41,.05,2.77,.09,4.07,.09,5.33,0,9.56-.66,12.02-3.73,.42-.47,4.8-5.47,4.2-11.21-.65-6.21-6.26-9.6-11.47-12.3-5.66-2.93-18.94-8.04-23.43-8.34-4.33-.28-12.14,2.57-14.58,11.48-1.53,5.61-1.13,10.14,1.12,13.58-.98,.39-1.64,.69-1.85,.85-1.6,1.2-5.04,13.27-6.57,18.88-.63-.07-1.1-.1-1.28-.08-.86,.12-2.84,3.07-3.02,3.33-6.72-.54-12.89-.9-15.44-.65-5.58,.55-14.58,7.41-17.95,10.12l-.12-3.14s.05-.01,.07-.03c.23-.15,.39-.4,.44-.68,.62-3.82,.42-4.44,.35-4.64-.54-1.62-4.3-2.57-11.17-2.81-7.85-.28-14.73,1.22-15.84,2.32-1.29,1.29-.04,5.88-.03,5.92,.2,.51,.56,.69,1.05,.69,.1,0,.2-.01,.31-.02l.28,3c-2.12-.34-5.85-.66-12.42-.66h-.25c-6.57,0-10.3,.31-12.42,.66l.28-3c.11,.01,.21,.02,.31,.02,.49,0,.85-.18,1.05-.69,.02-.04,1.26-4.63-.03-5.92-1.11-1.11-7.99-2.6-15.84-2.32-6.87,.24-10.63,1.19-11.17,2.81-.07,.2-.27,.81,.35,4.64,.04,.28,.2,.52,.44,.68,.02,.01,.05,.01,.07,.03l-.12,3.14c-3.37-2.71-12.37-9.57-17.95-10.12-2.54-.25-8.72,.11-15.44,.65-.17-.26-2.15-3.21-3.02-3.33-.18-.03-.65,0-1.28,.08-1.53-5.61-4.97-17.67-6.57-18.88-.21-.16-.87-.46-1.85-.85,2.25-3.45,2.65-7.98,1.12-13.58-2.44-8.91-10.25-11.76-14.58-11.48-4.48,.3-17.77,5.41-23.43,8.34-5.21,2.7-10.82,6.09-11.47,12.3-.6,5.74,3.78,10.74,4.2,11.21,2.46,3.07,6.69,3.73,12.02,3.73,1.29,0,2.65-.04,4.07-.09,7.85-.29,14.86-2.02,22.07-5.42,.36-.17,.7-.35,1.03-.53,.9,.37,1.55,.67,1.8,.88,.54,.95,2.39,6.81,4.18,12.88-.71-.99-1.58-1.73-2.51-2.13-.17-1.06-.62-3.38-1.32-4.35-1.05-1.47-2.87-1.58-4.69-1.48-1.72,.09-7.38,1.87-8.32,2.88-.27,.29-.49,.93-.65,1.88-1.58,.77-7.4,3.52-13.18,4.95-5.79,1.43-12.21,1.83-13.97,1.91-.36-.87-1.23-1.48-2.24-1.48-1.34,0-2.42,1.06-2.42,2.37s1.08,2.37,2.42,2.37c.74,0,1.39-.33,1.84-.85,1.72,.03,8.81,.08,16.05-1.04,5.16-.8,8.46-1.62,10.22-2.14-.33,1.03-.68,2.46-.87,4.22l-40.15,4.81s-3.87,.39-2.84,7.35c1.03,6.97,4.39,7.35,4.39,7.35l41.14-4.93c1.82,3.73,3.94,4.84,5.14,4.84,.06,0,.11,0,.16,0,.13-.01,13.85-1.58,15.26-3.13,.69-.75,.86-2.65,.83-4.55,2.65-.16,7.07-.98,7.75-1.51,.9-.71,1.23-2.06,1.23-2.06,0,0,0,0-.02,0,6.07-.48,11.45-.77,13.69-.55,5.54,.54,15.58,8.61,17.74,10.38l-.19,5.1c-.01,.3,.12,.6,.35,.8,.08,.07,1.28,1.05,4.38,1.81-14,10.02-12.63,19.5-12.63,19.5-4.47,5.3-7.26,13.71-8.89,20.38-2.66-4.69-8.09-4.44-8.79-4.38-.71,.06-8.35,3.7-8.35,3.7h0c-4.58,1.81-7.84,6.43-7.84,11.86,0,6.99,5.39,12.66,12.05,12.66,1.62,0,3.16-.34,4.56-.95h0s.02,0,.03-.01c.14-.06,.28-.13,.41-.2,2.41-1.14,4.26-2.4,5.67-3.68,.32,8.81,2.53,16.1,5.07,21.66-.77,.06-3.93,.57-5.42,4.93-.18,.51-.48,2.18-.87,4.53-4.32-.42-9.23,1.37-10.96,5.85-1.64,4.26-4.02,24.23-4.12,25.08-.07,.55,.33,1.05,.87,1.11,.04,0,.08,0,.12,0,.5,0,.93-.37,.99-.88,.02-.21,2.45-20.57,4-24.6,1.34-3.5,5.26-4.9,8.78-4.59-.6,3.83-1.32,8.81-2,13.6-.92,.17-2.48,.42-3.39,.37-1.35-.06-3.03-1.23-3.61-1.03-.58,.19-2.39,16.52-2.39,16.52l7.22,.29c.06,.44,.38,.8,.84,.86,.04,0,.09,0,.13,0,.49,0,.92-.36,.99-.87,1.79-13.35,4.67-33.85,5.28-35.62,.23-.66,.5-1.2,.79-1.64,.48-.02,1.13,.04,1.33,.51,.32,.77-1.68,19.1-1.55,19.48,.13,.39,.45,.39,.58,.06s1.55-12.9,2.26-13.1c.71-.19,1.68,1.81,1.68,1.81,0,0-.84,9.87-.58,10.06,.26,.19,.52,.45,.84-.19,.32-.65,1.55-8.13,2.13-8.06,.54,.06,2.34,1.99,2.97,2.03l-.29,3.92c-1.69,1.28-2.55,2.7-2.55,4.21,0,1.38,.74,2.49,1.4,3.21-.43,.35-.91,.81-1.32,1.37-1.68-.7-7.78-.75-8.34-.75-.65,0-1.03,.06-1.48,.32-.45,.26-2,12-2,12,0,0,7.81,.62,9.9,.39,.18,.21,.45,.36,.75,.36,.03,0,.07,0,.1,0,.55-.05,.95-.54,.9-1.09-.01-.15-.01-.28-.01-.42l19.29-.05,.95,1.73,27.45-.55h.25l27.45,.55,.95-1.73,19.29,.05c0,.14,0,.27-.01,.42-.05,.55,.35,1.04,.9,1.09,.03,0,.07,0,.1,0,.3,0,.56-.14,.75-.36,2.09,.23,9.9-.39,9.9-.39,0,0-1.55-11.74-2-12-.45-.26-.84-.32-1.48-.32-.55,0-6.65,.05-8.34,.75-.41-.56-.89-1.02-1.32-1.37,.66-.72,1.4-1.83,1.4-3.21,0-1.52-.86-2.93-2.55-4.21l-.29-3.92c.62-.03,2.43-1.97,2.97-2.03,.58-.06,1.81,7.42,2.13,8.06,.32,.65,.58,.39,.84,.19,.26-.19-.58-10.06-.58-10.06,0,0,.97-2,1.68-1.81,.71,.19,2.13,12.77,2.26,13.1s.45,.32,.58-.06c.13-.39-1.87-18.71-1.55-19.48,.2-.47,.85-.54,1.33-.51,.29,.44,.56,.98,.79,1.64,.6,1.77,3.49,22.27,5.28,35.62,.07,.5,.5,.87,.99,.87,.04,0,.09,0,.13,0,.46-.06,.78-.43,.84-.86l7.22-.29s-1.81-16.32-2.39-16.52c-.58-.19-2.26,.97-3.61,1.03-.91,.04-2.47-.21-3.39-.37-.68-4.8-1.4-9.77-2-13.6,3.51-.3,7.43,1.09,8.78,4.59,1.55,4.03,3.98,24.39,4,24.6,.06,.51,.49,.88,.99,.88,.04,0,.08,0,.12,0,.55-.07,.94-.56,.87-1.11-.1-.85-2.49-20.82-4.12-25.08-1.73-4.48-6.64-6.27-10.96-5.85-.38-2.34-.69-4.01-.87-4.53-1.48-4.36-4.64-4.87-5.42-4.93,2.53-5.56,4.74-12.85,5.07-21.66,1.41,1.28,3.26,2.55,5.67,3.68,.14,.07,.27,.14,.41,.2,.01,0,.02,.01,.03,.02h0c1.41,.6,2.95,.94,4.56,.94,6.65,0,12.05-5.67,12.05-12.66,0-5.44-3.27-10.06-7.84-11.85h0s-7.64-3.65-8.35-3.71c-.71-.06-6.13-.31-8.79,4.38-1.63-6.66-4.42-15.08-8.89-20.38,0,0,1.37-9.48-12.63-19.5,3.1-.75,4.3-1.74,4.38-1.81,.23-.2,.36-.49,.35-.8l-.19-5.1c2.16-1.78,12.2-9.84,17.74-10.38,2.24-.22,7.63,.08,13.69,.55,0,0,0,0-.02,0,0,0,.32,1.35,1.23,2.06,.68,.53,5.1,1.35,7.75,1.51-.02,1.9,.15,3.79,.83,4.55,1.41,1.55,15.13,3.12,15.26,3.13,.05,0,.11,0,.16,0,1.2,0,3.32-1.12,5.14-4.84l41.14,4.93s3.35-.39,4.39-7.35c1.03-6.97-2.84-7.35-2.84-7.35Zm-12.34-8.72c.51,0,.92,.4,.92,.9s-.41,.9-.92,.9-.92-.4-.92-.9,.41-.9,.92-.9Zm-259.5,1.8c-.51,0-.92-.4-.92-.9s.41-.9,.92-.9,.92,.4,.92,.9-.41,.9-.92,.9Zm18.3-14.82c-7.83,.29-12.22-.08-14.47-2.91-.01-.02-.03-.04-.05-.05-.04-.05-4.23-4.68-3.71-9.67,.5-4.69,4.52-7.68,10.4-10.73,5.51-2.85,18.52-7.84,22.64-8.12,.16-.01,.33-.02,.51-.02,3.79,0,9.98,2.61,12.01,10.02,1.43,5.23,1.05,9.29-1.12,12.31-.55-.21-1.15-.43-1.78-.65,.71-.97,1.74-2.99,1.74-6.57,0-5.42-2.71-9.16-2.71-9.16,.65,2.39-.84,8.26-4.9,10.26-2.02,1-4.2,1.38-5.89,1.52-4.14-1.29-7.62-2.25-8.5-2.2-.51,.03-.9,.17-1.2,.35-3.61,1.51-.93,5.62-.93,5.62,0,0-2.58,2.06-8.97,2.32-6.39,.26-9.29-1.55-9.29-1.55,0,0,2,6,5.03,7.1,3.03,1.1,13.03,1.23,19.48,0,5.14-.98,9.29-2.69,10.77-3.34,.53,.19,1.05,.37,1.55,.55-6.71,3.07-13.28,4.65-20.61,4.93Zm13.82,6.06c.68-.47,3.93-1.64,5.91-2.07,.43,.07,.86,.25,1.11,.63,.43,.64,.72,2.14,.88,3.15-2.85,.54-6.31,1.48-8.34,2.05,.08-1.66,.25-3.28,.44-3.77Zm-11.78,7.1c-4.52,.97-11.81,1.87-12,1.48-.19-.39,.58-.84,.84-.9,.26-.06,8.39-1.16,14.13-2.71,3.56-.96,5.48-1.82,6.43-2.33-.03,.46-.06,.96-.07,1.49-1.54,.61-5.71,2.2-9.32,2.98Zm26.4,19.44c-3.69-3.4-5.24-11.38-5.24-11.38,0,0-1.61,.71-4.26,1.61-2.65,.9-5.74-.19-5.74-.19,0,0-.28,1.36,.9,5.42,.96,3.3,2.76,5.22,3.97,6.19-.38,.05-.7,.08-.89,.1-.54,.03-3.29-1.47-5.04-8.63-1.77-7.21,.02-12.24,.6-13.62,.02,0,.03-.03,.05-.04,2.8-.82,8.76-2.43,11.59-2.69-.5,1.53-1.07,4.46-.27,8.92,1.17,6.55,3.31,11.51,5.94,13.92-.45,.12-1,.25-1.62,.38Zm2.93-1.89c-2.24-2.09-4.22-6.82-5.28-12.76-.78-4.37-.13-7.04,.28-8.17,.8,.55,1.63,1.61,2.09,3.01-.33,.64-.85,2.37-.29,6.43,.66,4.79,2.68,8.21,3.26,9.11,.02,.92,0,1.74-.06,2.38Zm.5-18.76c-.99-3.43-4.32-14.73-5.25-16.17-.62-.95-3.55-2.1-14.93-5.83-3.12-1.03-6.64-2.18-7.41-2.55-.05-.09-.11-.19-.15-.3-.04-.28,0-.72,.5-1.03,3.22,.51,22.6,6.86,24.13,7.93,.89,.93,3.6,9.53,5.8,17.56-.88,.12-1.82,.26-2.68,.39Zm39.39,14.37c-1.35-.1-12.48-6.1-14.81-6.48-1.18-.2-8.99,.28-16.6,.75-.09-.35-.17-.71-.27-1.1-.3-1.16-.26-2.09-.07-2.81,7.19-.61,13.99-1.04,16.59-.78,5.21,.51,14.41,7.68,17.28,10.01-.66,.24-1.47,.46-2.12,.42Zm-27.85,76.23c-4.28,0-7.75-3.65-7.75-8.15s3.47-8.15,7.75-8.15,7.75,3.65,7.75,8.15-3.47,8.15-7.75,8.15Zm11.55-8.15c-.34,1.4-.87,2.08-1.21,1.89,0,0,1.89-4.74-1.98-9.24-3.87-4.5-10.65-2.81-10.65-2.81-.05-.29,.1-.77,1.69-1.31,1.6-.53,6.48-.87,9.48,2.03s3,8.03,2.66,9.44Zm10.56-2.65s-.07,0-.1,0c-.13,0-.26,.01-.4,.02-.07,0-.13,0-.2,0-.12,0-.25,0-.38,.01-.09,0-.18,0-.28,0-.12,0-.24,0-.37,0-.11,0-.21,0-.32,0-.12,0-.24,0-.36,0-.12,0-.24,0-.37,0-.11,0-.23,0-.34,0-.13,0-.26,0-.39,0-.11,0-.22,0-.32,0-.13,0-.26,0-.39,0-.1,0-.2,0-.3,0-.13,0-.26,0-.39-.02-.09,0-.18,0-.27-.01-.13,0-.25-.01-.37-.02-.08,0-.17-.01-.24-.02-.12,0-.23-.02-.34-.03-.07,0-.14-.01-.2-.02-.03,0-.06,0-.09-.01-.14-.02-.28-.03-.4-.05-.12-.02-.24-.04-.33-.07,0,0-.16-.59-.31-1.4-.05-.27-.1-.57-.15-.87-.04-.29-.08-.59-.11-.89,0-.03,0-.05,0-.08-.08-.93-.05-1.82,.24-2.32h7.75c-.02,.53-.04,1.06-.04,1.6,0,1.4,.07,2.78,.2,4.15-.12,0-.26,.02-.4,.02Zm121.73,2.65c0,4.5-3.47,8.15-7.75,8.15s-7.75-3.65-7.75-8.15,3.47-8.15,7.75-8.15,7.75,3.65,7.75,8.15Zm-16.64-9.44c3-2.9,7.89-2.56,9.48-2.03,1.6,.53,1.74,1.02,1.69,1.31,0,0-6.77-1.69-10.65,2.81-3.87,4.5-1.98,9.24-1.98,9.24-.34,.19-.87-.48-1.21-1.89-.34-1.4-.34-6.53,2.66-9.44Zm-13.46,1.02h7.75c.29,.5,.31,1.4,.24,2.32,0,.03,0,.05,0,.08-.03,.3-.06,.6-.11,.89-.05,.31-.1,.6-.15,.87-.15,.81-.31,1.4-.31,1.4-.09,.02-.21,.05-.33,.07-.12,.02-.26,.04-.4,.05-.03,0-.06,0-.09,.01-.06,0-.14,.01-.2,.02-.11,.01-.22,.02-.34,.03-.08,0-.16,.01-.24,.02-.12,0-.24,.02-.37,.02-.09,0-.18,0-.27,.01-.13,0-.26,.01-.39,.02-.1,0-.2,0-.3,0-.13,0-.26,0-.39,0-.11,0-.22,0-.32,0-.13,0-.26,0-.39,0-.11,0-.23,0-.34,0-.12,0-.24,0-.37,0-.12,0-.24,0-.36,0-.11,0-.22,0-.32,0-.12,0-.25,0-.37,0-.09,0-.19,0-.28,0-.13,0-.26,0-.38-.01-.07,0-.13,0-.2,0-.14,0-.28-.01-.4-.02-.04,0-.07,0-.1,0-.14,0-.27-.02-.4-.02,.12-1.37,.2-2.75,.2-4.15,0-.54-.02-1.07-.04-1.6Zm-46.37-59.27h1.34s9.09,.22,12.14,.83l1.08,11.7c-4.38-1.47-13.16-1.88-13.16-1.88h-1.47s-8.78,.42-13.16,1.88l1.08-11.7c3.05-.61,12.14-.83,12.14-.83Zm-35.38-10.45c.31-.24,2.07-1.26,9.35-1.52,7.76-.28,13.41,1.19,14.3,1.71,.15,.53-.02,2.12-.2,3.1-.19-.05-.41-.11-.61-.17-1.89-.52-5.42-1.48-10.3-1.61-.47-.01-.94-.02-1.4-.02-4.98,0-9.02,.69-10.86,1.07-.16-1.12-.28-2.21-.27-2.56Zm2.25,5.71c-.45,.37-.8,12.44-.9,15.94-.39,.12-.74,.23-1.04,.33l.13-3.39c.06-.18,.06-.37,.02-.56l.5-13.57c2.05-.4,6.39-1.09,11.51-.95,4.27,.11,7.45,.9,9.34,1.41l-1.65,17.85c-.53-.27-1.07-.52-1.6-.74,.71-3.29,2.2-15.6,1.78-15.89-.48-.34-4.74-1.02-4.79-.87-.05,.15-.29,13.89-2.37,14.32-2.08,.44-4.16-.29-4.35-.82-.19-.53,.77-13.98,.77-13.98-2.85-.1-6.82,.48-7.35,.92Zm10.72,19.1l-.83,7.6c-1.9,1.16-3.7,2.46-5.4,3.88l1.18-11.66c.82-.22,2.58-.5,5.05,.17Zm-17.66,119.32c-3.28,.2-5.98,1.55-7.05,2.33,.29-2.22,2.44-3.11,2.8-3.24,.65-.13,9.88-1.92,17.07,0,.15,.05,.98,.38,1.22,1.7-1.85-.45-9.95-1.03-14.04-.78Zm15.06-4.92c-.09,.44-.37,.82-.71,1.13,.1-.95-.33-2.24-1.51-2.73-1.87-.77-15.16-.77-16.65-.13-1.11,.48-1.42,1.96-1.14,3.09-.62-.65-.92-1.29-.88-1.9,.07-1.25,1.48-2.36,2.18-2.8,1.48-.15,10.42-1,16.83-.03,1.4,1.3,2.06,2.46,1.88,3.37Zm.1-7.31c-.18,1.02-1.22,1.7-1.69,1.96,1.86-1.04,.14-3.15-2.38-3.93-2.52-.77-10.06-.9-13.03,.84-2.22,1.3-1.91,2.37-1.51,3.07-.08,0-.17,.02-.23,.02-.45-.39-1.29-1.26-1.29-2.29,0-.91,.67-1.85,1.98-2.78,1.02-.38,9.5-3.33,16.56-.06,.86,.85,1.79,2.06,1.59,3.17Zm-17.52-5.43l2.53-34.07c3.42,6.54,8.38,12.15,14.39,16.34l-1.31,17.7c-6.17-2.33-12.74-.85-15.61,.02Zm34.54,10.18s-5.13-18.68-4.45-19.06c.68-.39,1.55-.48,1.94,.1,.39,.58,2.61,13.84,2.81,15.58,.19,1.74,.48,3.68-.29,3.39Zm17.08,0c-.77,.29-.48-1.65-.29-3.39,.19-1.74,2.42-15,2.81-15.58,.39-.58,1.26-.48,1.94-.1,.68,.39-4.45,19.06-4.45,19.06Zm39.25,9.82c-1.07-.78-3.77-2.13-7.05-2.33-4.09-.25-12.19,.34-14.04,.78,.24-1.31,1.07-1.65,1.22-1.7,7.19-1.91,16.42-.13,17.07,0,.36,.13,2.51,1.02,2.8,3.24Zm-1.23-7.79c.04,.61-.26,1.25-.88,1.9,.28-1.13-.03-2.61-1.14-3.09-1.48-.65-14.77-.65-16.65,.13-1.19,.49-1.62,1.78-1.51,2.73-.34-.32-.63-.7-.71-1.13-.18-.91,.48-2.07,1.88-3.37,6.41-.97,15.35-.12,16.83,.03,.7,.44,2.1,1.55,2.18,2.8Zm-.86-7.1c0,1.04-.84,1.91-1.29,2.29-.06,0-.15-.02-.23-.02,.4-.7,.71-1.76-1.51-3.07-2.97-1.74-10.52-1.61-13.03-.84-2.52,.77-4.24,2.89-2.38,3.93-.47-.26-1.51-.94-1.69-1.96-.2-1.11,.73-2.32,1.59-3.17,7.07-3.28,15.54-.32,16.56,.06,1.32,.94,1.98,1.87,1.98,2.78Zm-19.54-22.83c6.02-4.2,10.97-9.81,14.39-16.34l2.53,34.07c-2.87-.87-9.44-2.35-15.61-.02l-1.31-17.7Zm17.33-37.42c0,9.22-2.88,17.77-7.78,24.82,7.9-12.72,7.21-23.35,7-23.75-.23-.45-.57-.33-.75,.32,0,0-5.89,37.9-41.84,38.48h-.25c-35.95-.58-41.84-38.48-41.84-38.48-.18-.65-.52-.77-.75-.32-.21,.41-.89,11.03,7,23.75-4.9-7.05-7.78-15.6-7.78-24.82,0-24.01,19.5-43.54,43.49-43.61,23.99,.07,43.49,19.6,43.49,43.61Zm-20.41-46.51c2.47-.67,4.23-.39,5.05-.17l1.18,11.66c-1.7-1.42-3.5-2.72-5.4-3.88l-.83-7.6Zm11.62-3.17c-.09-3.5-.44-15.57-.9-15.94-.53-.44-4.5-1.02-7.35-.92,0,0,.97,13.45,.77,13.98-.19,.53-2.27,1.26-4.35,.82-2.08-.44-2.32-14.18-2.37-14.32-.05-.15-4.31,.53-4.79,.87-.42,.3,1.07,12.6,1.78,15.89-.53,.22-1.07,.47-1.6,.74l-1.65-17.85c1.89-.51,5.07-1.3,9.34-1.41,5.13-.14,9.46,.55,11.51,.95l.5,13.57c-.04,.18-.04,.37,.02,.56l.13,3.39c-.3-.1-.65-.22-1.04-.33Zm1.08-19.08c-1.84-.38-5.88-1.07-10.86-1.07-.46,0-.92,0-1.4,.02-4.89,.13-8.41,1.09-10.3,1.61-.2,.06-.42,.11-.61,.17-.18-.98-.36-2.58-.2-3.1,.89-.52,6.54-1.98,14.3-1.71,7.28,.26,9.04,1.28,9.35,1.52,0,.36-.11,1.44-.27,2.56Zm36.09,.67c-.1,.39-.19,.75-.27,1.1-7.61-.47-15.42-.94-16.6-.75-2.32,.39-13.45,6.39-14.81,6.48-.65,.05-1.45-.18-2.12-.42,2.87-2.33,12.07-9.5,17.28-10.01,2.6-.26,9.4,.18,16.59,.78,.18,.72,.22,1.64-.07,2.81Zm18.74-14.85c.25-.38,.68-.56,1.11-.63,1.99,.43,5.23,1.6,5.91,2.07,.19,.49,.36,2.11,.44,3.77-2.03-.58-5.49-1.51-8.34-2.05,.16-1.01,.45-2.5,.88-3.15Zm-6.49-26.11c2.03-7.41,8.22-10.02,12.01-10.02,.17,0,.34,0,.51,.02,4.12,.28,17.13,5.26,22.64,8.12,5.89,3.05,9.91,6.04,10.4,10.73,.52,4.99-3.67,9.62-3.71,9.67-.02,.02-.03,.04-.05,.05-2.25,2.84-6.64,3.21-14.47,2.91-7.32-.27-13.89-1.85-20.61-4.93,.49-.18,1.01-.36,1.55-.55,1.48,.66,5.63,2.37,10.77,3.34,6.45,1.23,16.45,1.1,19.48,0,3.03-1.1,5.03-7.1,5.03-7.1,0,0-2.9,1.81-9.29,1.55-6.39-.26-8.97-2.32-8.97-2.32,0,0,2.68-4.11-.93-5.62-.3-.18-.69-.31-1.2-.35-.88-.05-4.36,.91-8.5,2.2-1.68-.14-3.86-.53-5.89-1.52-4.06-2-5.55-7.87-4.9-10.26,0,0-2.71,3.74-2.71,9.16,0,3.58,1.04,5.6,1.74,6.57-.63,.23-1.23,.45-1.78,.65-2.17-3.02-2.55-7.09-1.12-12.31Zm-7.23,33.03c2.2-8.03,4.91-16.63,5.8-17.56,1.53-1.07,20.91-7.42,24.13-7.93,.5,.31,.54,.75,.5,1.03-.05,.11-.1,.21-.15,.3-.76,.37-4.28,1.53-7.41,2.55-11.38,3.73-14.31,4.88-14.93,5.83-.94,1.44-4.26,12.75-5.25,16.17-.87-.13-1.81-.27-2.68-.39Zm3.13,16.78c.58-.9,2.6-4.32,3.26-9.11,.56-4.07,.04-5.79-.29-6.43,.46-1.4,1.29-2.46,2.09-3.01,.41,1.13,1.06,3.8,.28,8.17-1.06,5.94-3.04,10.67-5.28,12.76-.06-.64-.08-1.46-.06-2.38Zm19.29-2.61c-1.75,7.16-4.5,8.66-5.04,8.63-.2-.02-.51-.05-.89-.1,1.21-.98,3-2.9,3.97-6.19,1.19-4.06,.9-5.42,.9-5.42,0,0-3.1,1.1-5.74,.19-2.65-.9-4.26-1.61-4.26-1.61,0,0-1.55,7.97-5.24,11.38-.62-.13-1.17-.26-1.62-.38,2.63-2.41,4.77-7.37,5.94-13.92,.8-4.46,.23-7.39-.27-8.92,2.84,.26,8.79,1.87,11.59,2.69,.02,.01,.03,.03,.05,.04,.59,1.37,2.37,6.4,.6,13.62Zm.71-17.03c.95,.52,2.87,1.38,6.43,2.33,5.74,1.55,13.87,2.65,14.13,2.71,.26,.06,1.03,.52,.84,.9-.19,.39-7.48-.52-12-1.48-3.61-.77-7.78-2.37-9.32-2.98-.02-.53-.04-1.03-.07-1.49Zm8.71-29.07c.7,.4,4.59-1.02,7.29,.04,3.59,1.41,9.17,3.68,9.17,3.68,0,0-1.45-2.15-7.6-5.53-6.14-3.38-19.12-7.25-19.12-7.25,0,0,6.34,3.25,7.99,5.09s1.56,3.57,2.26,3.97Zm-15.34,34.56c-1.04,.28-1.63,1.48-1.31,2.66,.32,1.19,1.43,1.92,2.48,1.63,1.04-.28,1.63-1.48,1.31-2.66-.32-1.19-1.43-1.92-2.48-1.63Zm-93.26,34.55s-.08,0-.12,0c-.04,0-.08,0-.12,0-21.42,0-38.84,17.42-38.84,38.84s17.42,38.84,38.84,38.84c.04,0,.08,0,.12,0,.04,0,.08,0,.12,0,21.42,0,38.84-17.42,38.84-38.84s-17.42-38.84-38.84-38.84Zm-.12,75.67c-20.26-.07-36.72-16.56-36.72-36.84s16.46-36.77,36.72-36.84c20.26,.07,36.72,16.56,36.72,36.84s-16.46,36.77-36.72,36.84Zm1.94-15.06c-14.57-1.44-26.34-13.11-27.92-27.67-.41-3.78-.13-7.45,.71-10.89,.1-.42-.45-.67-.69-.31-3.69,5.39-5.74,11.98-5.42,19.08,.71,15.82,13.45,28.79,29.25,29.77,14.08,.87,26.31-7.58,31.11-19.77,.15-.39-.35-.71-.64-.39-6.37,7.07-15.92,11.21-26.4,10.18Zm-95.33-95.16c-1.04-.28-2.15,.45-2.48,1.63-.32,1.19,.26,2.38,1.31,2.66,1.04,.28,2.15-.45,2.48-1.63,.32-1.19-.26-2.38-1.31-2.66Z"/>
    </g>
  </g>
  <g id="TEXTS">
    <text class="cls-1" transform="translate(81.44 345.99)"><tspan x="0" y="0">TAGIE</tspan></text>
  </g>
</svg>